<svg xmlns="http://www.w3.org/2000/svg" viewBox="0 0 145.31 57.24"><defs><style>.cls-1{fill:#34485c;}</style></defs><title>logo</title><g id="Layer_2" data-name="Layer 2"><g id="Layer_1-2" data-name="Layer 1"><path class="cls-1" d="M7.16,18.42,7.73,22c2.41-3.87,5.65-4.44,8.82-4.44a11.87,11.87,0,0,1,8.05,3L21.11,27.3a7.75,7.75,0,0,0-5.58-2c-4.06,0-7.8,2.16-7.8,7.93V49.68H0V18.42Z"/><path class="cls-1" d="M32.84,36.81c.5,3.87,3.86,6.66,9.32,6.66,2.85,0,6.59-1.08,8.37-2.92l4.94,4.88C52.17,48.86,46.79,50.5,42,50.5c-10.78,0-17.18-6.65-17.18-16.67,0-9.51,6.47-16.36,16.61-16.36,10.46,0,17,6.47,15.79,19.34Zm17-6.4c-.51-4.06-3.68-6.09-8.12-6.09-4.18,0-7.61,2-8.75,6.09Z"/><path class="cls-1" d="M85,49.68V33.32C85,28.57,82.35,25,77.4,25c-4.75,0-8,4-8,8.75v16H61.74V18.36h6.91l.51,4.25c3.17-3.11,6.34-4.69,10.27-4.69,7.36,0,13.25,5.51,13.25,15.34V49.68Z"/><path class="cls-1" d="M107.64,9.61v8.88h8.62v6.65h-8.68V38.65c0,3,1.65,4.44,4.06,4.44a8.73,8.73,0,0,0,3.74-1l2.15,6.6a17.16,17.16,0,0,1-6.4,1.33c-6.79.25-11.22-3.61-11.22-11.41V25.14H94.07V18.49h5.84V10.43Z"/><path class="cls-1" d="M127.93,18.42,128.5,22c2.41-3.87,5.64-4.44,8.81-4.44a11.84,11.84,0,0,1,8,3l-3.49,6.72a7.75,7.75,0,0,0-5.58-2c-4,0-7.79,2.16-7.79,7.93V49.68h-7.74V18.42Z"/><path class="cls-1" d="M7.41,1.55,9,2.75,8,4A3.73,3.73,0,0,1,8.9,6.57,3.46,3.46,0,0,1,7.07,9.81a2.91,2.91,0,0,1,1.79,2.86c0,2.4-1.83,3.87-4.34,3.87S.12,15,.12,12.65H2.25a2,2,0,0,0,2.11,1.89l.16,0a1.93,1.93,0,0,0,2.17-1.65,1.64,1.64,0,0,0,0-.22c0-1.19-1.12-1.74-2.19-1.74A4.07,4.07,0,0,1,.12,7.22a3.75,3.75,0,0,1,0-.67,4.23,4.23,0,0,1,4.05-4.4h.35a3.51,3.51,0,0,1,2,.49Zm-5.12,5a2.26,2.26,0,0,0,4.52,0h0a2.27,2.27,0,0,0-4.52-.43A3.08,3.08,0,0,0,2.29,6.55Z"/><path class="cls-1" d="M12,7.53c.14,1.08,1.07,1.85,2.59,1.85a3.57,3.57,0,0,0,2.32-.81l1.37,1.36a5.29,5.29,0,0,1-3.73,1.4c-3,0-4.76-1.84-4.76-4.62a4.33,4.33,0,0,1,4.13-4.54h.48c2.9,0,4.71,1.79,4.38,5.36Zm4.72-1.77a2,2,0,0,0-2.25-1.69,2.33,2.33,0,0,0-2.43,1.69Z"/><path class="cls-1" d="M23,0V2.45h2.4V4.3H23V8a1.08,1.08,0,0,0,.91,1.23h.22a2.48,2.48,0,0,0,1-.27l.6,1.83a4.73,4.73,0,0,1-1.78.37c-1.88.07-3.12-1-3.12-3.17V4.3H19.25V2.45h1.61V.22Z"/><circle class="cls-1" cx="80.88" cy="36.73" r="2.22"/><polygon class="cls-1" points="87.01 57.24 67.39 57.24 69.46 49.68 84.94 49.68 87.01 57.24"/></g></g></svg>
